Exact Audio Copy V1.0 beta 3 from 29. August 2011

EAC extraction logfile from 20. February 2013, 9:17

Jimi Hendrix / The Best Vol.II

Used drive  : HL-DT-STDVDRAM GP08LU10   Adapter: 1  ID: 0

Read mode               : Secure
Utilize accurate stream : Yes
Defeat audio cache      : Yes
Make use of C2 pointers : No

Read offset correction                      : 667
Overread into Lead-In and Lead-Out          : No
Fill up missing offset samples with silence : Yes
Delete leading and trailing silent blocks   : No
Null samples used in CRC calculations       : Yes
Used interface                              : Native Win32 interface for Win NT & 2000
Gap handling                                : Not detected, thus appended to previous track

Used output format              : User Defined Encoder
Selected bitrate                : 1024 kBit/s
Quality                         : High
Add ID3 tag                     : No
Command line compressor         : D:Program FilesExact Audio CopyFLACFLAC.EXE
Additional command line options : -6 -V -T "ARTIST=%artist%" -T "TITLE=%title%" -T "ALBUM=%albumtitle%" -T "DATE=%year%" -T "TRACKNUMBER=%tracknr%" -T "GENRE=%genre%" -T "COMMENT=%comment%" -T "BAND=%albuminterpret%" -T "ALBUMARTIST=%albuminterpret%" -T "COMPOSER=%composer%" %haslyrics%--tag-from-file=LYRICS="%lyricsfile%"%haslyrics% -T "DISCNUMBER=%cdnumber%" -T "TOTALDISCS=%totalcds%" -T "TOTALTRACKS=%numtracks%" %hascover%--picture="%coverfile%"%hascover% %source% -o %dest%


TOC of the extracted CD

     Track |   Start  |  Length  | Start sector | End sector 
    ---------------------------------------------------------
        1  |  0:00.00 |  4:04.62 |         0    |    18361   
        2  |  4:04.62 |  4:48.23 |     18362    |    39984   
        3  |  8:53.10 |  3:50.70 |     39985    |    57304   
        4  | 12:44.05 |  2:40.60 |     57305    |    69364   
        5  | 15:24.65 |  2:23.32 |     69365    |    80121   
        6  | 17:48.22 |  3:29.50 |     80122    |    95846   
        7  | 21:17.72 |  2:46.45 |     95847    |   108341   
        8  | 24:04.42 |  5:36.53 |    108342    |   133594   


Track  1

     Filename D:DesktopJimi(01) Jimi Hendrix - Good Times.wav

     Peak level 94.3 %
     Extraction speed 2.8 X
     Track quality 100.0 %
     Copy CRC FA76998A
     Track not present in AccurateRip database
     Copy OK

Track  2

     Filename D:DesktopJimi(02) Jimi Hendrix - Voices.wav

     Peak level 91.6 %
     Extraction speed 3.3 X
     Track quality 100.0 %
     Copy CRC 40A201F3
     Track not present in AccurateRip database
     Copy OK

Track  3

     Filename D:DesktopJimi(03) Jimi Hendrix - Suspicious.wav

     Peak level 89.3 %
     Extraction speed 3.5 X
     Track quality 100.0 %
     Copy CRC 62C779AC
     Track not present in AccurateRip database
     Copy OK

Track  4

     Filename D:DesktopJimi(04) Jimi Hendrix - Whipper.wav

     Peak level 87.3 %
     Extraction speed 3.5 X
     Track quality 100.0 %
     Copy CRC E9DB777D
     Track not present in AccurateRip database
     Copy OK

Track  5

     Filename D:DesktopJimi(05) Jimi Hendrix - Bessie Mae.wav

     Peak level 78.6 %
     Extraction speed 2.7 X
     Track quality 99.9 %
     Copy CRC B225A3A0
     Track not present in AccurateRip database
     Copy OK

Track  6

     Filename D:DesktopJimi(06) Jimi Hendrix - Soul Food.wav

     Peak level 87.0 %
     Extraction speed 3.8 X
     Track quality 100.0 %
     Copy CRC EA2C9433
     Track not present in AccurateRip database
     Copy OK

Track  7

     Filename D:DesktopJimi(07) Jimi Hendrix - Voice In The Wind.wav

     Peak level 75.2 %
     Extraction speed 3.9 X
     Track quality 100.0 %
     Copy CRC 08F90926
     Track not present in AccurateRip database
     Copy OK

Track  8

     Filename D:DesktopJimi(08) Jimi Hendrix - Free Spirit.wav

     Peak level 86.6 %
     Extraction speed 4.6 X
     Track quality 100.0 %
     Copy CRC 4AEFA43D
     Track not present in AccurateRip database
     Copy OK


None of the tracks are present in the AccurateRip database

No errors occurred

End of status report

---- CUETools DB Plugin V2.1.3

[CTDB TOCID: 4UJ9czYW_JX_.fF_ZnAPEf9CKy8-] disk not present in database, Submit result: 4UJ9czYW_JX_.fF_ZnAPEf9CKy8- has been uploaded
